<?xml version="1.0" standalone="no"?>
<!DOCTYPE svg PUBLIC "-//W3C//DTD SVG 20010904//EN"
 "http://www.w3.org/TR/2001/REC-SVG-20010904/DTD/svg10.dtd">
<svg version="1.0" xmlns="http://www.w3.org/2000/svg"
 width="300.000000pt" height="667.000000pt" viewBox="0 0 300.000000 667.000000"
 preserveAspectRatio="xMidYMid meet">
<metadata>
Created by potrace 1.10, written by Peter Selinger 2001-2011
</metadata>
<g transform="translate(0.000000,667.000000) scale(0.100000,-0.100000)"
fill="#000000" stroke="none">
<path d="M0 4850 c0 -7 148 -9 428 -9 242 1 401 5 367 9 -94 12 -795 12 -795
0z"/>
<path d="M935 4849 c-26 -4 -5 -6 60 -7 55 0 96 1 90 3 -22 8 -112 10 -150 4z"/>
<path d="M1690 4850 c-35 -5 -22 -7 59 -8 57 -1 102 0 100 2 -10 8 -118 13
-159 6z"/>
<path d="M2415 4850 c-16 -4 108 -8 278 -9 199 -1 307 3 307 9 0 12 -538 12
-585 0z"/>
<path d="M1313 4843 c37 -2 96 -2 130 0 34 2 4 3 -68 3 -71 0 -99 -1 -62 -3z"/>
<path d="M2070 4657 c0 -2 23 -18 50 -35 28 -17 50 -27 50 -22 0 5 -10 15 -22
21 -13 7 -25 15 -28 19 -6 8 -50 23 -50 17z"/>
<path d="M2456 4625 c4 -8 11 -15 18 -15 6 0 19 -8 27 -17 34 -39 89 -74 89
-58 0 15 -56 65 -67 60 -8 -2 -11 0 -8 5 3 6 1 10 -5 10 -6 0 -18 7 -26 15 -9
8 -19 15 -24 15 -5 0 -7 -7 -4 -15z"/>
<path d="M1440 4608 c10 -9 100 -59 100 -55 0 8 -57 45 -80 52 -14 4 -23 5
-20 3z"/>
<path d="M1790 4550 c-23 -7 -24 -8 -6 -15 13 -6 21 -4 24 3 2 6 10 8 18 5 8
-3 14 -1 14 4 0 11 -15 12 -50 3z"/>
<path d="M885 4509 c-4 -6 -4 -13 -1 -16 3 -4 0 -16 -7 -27 -15 -23 -17 -95
-3 -99 5 -1 10 9 11 23 1 14 5 33 10 43 4 10 3 17 -4 17 -19 0 0 29 22 33 21
4 21 4 -2 6 -16 1 -21 5 -17 16 6 17 0 20 -9 4z"/>
<path d="M1634 4510 c-29 -6 -29 -6 -6 -18 15 -9 22 -9 22 -2 0 6 10 11 23 10
37 -3 61 0 54 7 -9 8 -55 10 -93 3z"/>
<path d="M1984 4428 c-6 -9 -6 -9 49 -13 20 -2 37 0 37 5 0 10 -80 18 -86 8z"/>
<path d="M2824 4163 c2 -131 4 -248 5 -260 1 -16 7 -23 21 -23 11 0 20 5 20
11 0 5 -4 8 -9 5 -11 -7 -25 40 -22 69 2 11 8 23 15 27 6 5 7 8 1 8 -6 0 -11
40 -13 98 -3 118 -3 105 -3 172 1 90 -3 130 -11 130 -4 0 -6 -107 -4 -237z"/>
<path d="M2495 4369 c6 -30 14 -36 25 -19 5 9 5 19 -2 27 -16 20 -27 16 -23
-8z"/>
<path d="M1581 4332 c14 -23 61 -52 81 -51 7 0 2 5 -11 10 -15 6 -21 14 -17
25 3 9 2 12 -5 9 -5 -4 -21 1 -35 10 -24 15 -24 15 -13 -3z"/>
<path d="M2487 4233 c-4 -3 -7 -29 -7 -57 0 -46 1 -48 14 -30 8 10 10 21 5 22
-5 2 -9 8 -9 13 0 6 5 7 10 4 6 -3 10 -2 10 4 0 5 -4 12 -10 16 -5 3 -7 12 -3
20 5 16 1 20 -10 8z"/>
<path d="M2208 4173 c23 -22 42 -31 64 -31 l30 1 -23 18 c-26 20 -44 25 -34 9
3 -6 -11 0 -32 12 l-38 22 33 -31z"/>
<path d="M2089 4186 c-2 -2 -23 -7 -46 -11 -68 -10 -113 -32 -113 -56 0 -11
-3 -18 -7 -16 -5 3 -8 -5 -8 -18 0 -14 5 -21 13 -18 6 3 12 11 12 19 0 8 4 14
9 14 5 0 12 10 14 23 4 18 4 18 6 -6 l1 -28 73 7 c39 4 98 8 129 8 32 0 54 4
51 9 -5 8 15 4 55 -10 6 -3 12 -2 12 1 0 12 -70 37 -82 30 -6 -4 -8 -3 -4 4 3
6 2 13 -4 17 -5 3 -10 2 -10 -2 0 -5 -11 -9 -25 -9 -14 0 -25 4 -25 8 0 4 -4
8 -10 8 -5 0 -6 -7 -3 -17 4 -11 3 -14 -5 -9 -7 4 -22 0 -34 -8 -13 -9 -31
-13 -46 -9 -19 5 -23 3 -18 -8 4 -8 0 -5 -8 5 -9 11 -14 21 -13 23 2 1 25 5
52 8 26 2 53 9 60 15 8 6 25 8 42 4 25 -7 27 -6 14 9 -12 15 -71 24 -82 13z"/>
<path d="M1570 4055 c10 -12 10 -18 1 -29 -14 -16 -1 -28 17 -17 15 9 -1 61
-19 61 -8 0 -8 -4 1 -15z"/>
<path d="M645 4020 c3 -5 1 -10 -4 -10 -17 0 -13 -27 4 -34 11 -4 15 2 15 24
0 17 -5 30 -11 30 -5 0 -7 -4 -4 -10z"/>
<path d="M1433 4018 c-10 -3 -34 -7 -53 -7 -19 -1 -41 -5 -49 -10 -18 -11 -5
-31 20 -31 10 0 19 -4 19 -9 0 -6 -15 -7 -34 -4 -28 4 -35 2 -41 -16 -9 -31
-47 -46 -122 -50 -7 -1 -13 -5 -13 -10 0 -14 97 -8 112 7 6 6 18 12 25 12 7 0
13 4 13 9 0 5 25 12 55 16 30 3 61 13 69 21 8 8 26 14 40 14 14 0 28 4 31 10
3 5 20 7 38 4 l32 -6 -28 27 c-29 28 -78 38 -114 23z"/>
<path d="M1140 3965 c-10 -12 -9 -16 4 -20 9 -3 23 -7 32 -10 10 -3 14 0 11 7
-2 7 3 18 12 25 14 11 11 12 -15 13 -17 0 -37 -7 -44 -15z"/>
<path d="M826 3943 c2 -3 -4 -12 -12 -20 -11 -11 -12 -19 -4 -28 6 -7 10 -17
9 -21 -5 -27 4 -40 28 -42 24 -2 25 -1 11 15 -8 10 -15 34 -17 53 -1 19 -5 38
-10 41 -4 4 -7 4 -5 2z"/>
<path d="M2225 3933 c-74 -11 -328 -72 -375 -91 -8 -3 -150 -6 -315 -7 -195 0
-324 -5 -369 -13 -51 -10 -72 -10 -82 -1 -10 8 -19 6 -39 -9 -38 -30 -15 -35
72 -17 43 9 123 18 178 20 89 4 93 3 38 -5 -34 -5 -70 -13 -81 -19 -11 -6 -22
-8 -25 -5 -6 6 -136 -19 -216 -42 -29 -8 -50 -18 -47 -21 3 -3 1 -12 -4 -19
-8 -8 -6 -17 5 -28 9 -9 15 -24 13 -33 -2 -13 -10 -10 -36 17 -26 26 -33 39
-29 60 5 24 4 26 -29 22 -40 -5 -44 -19 -8 -32 32 -13 26 -33 -11 -40 -32 -6
-41 -20 -50 -72 -3 -21 -11 -38 -17 -38 -5 0 -7 -7 -4 -16 5 -14 4 -15 -9 -4
-17 14 -21 35 -5 25 15 -9 12 8 -5 32 -13 19 -19 21 -40 11 -24 -11 -24 -12
-9 -29 9 -10 22 -16 28 -13 6 3 4 0 -4 -8 -29 -25 -18 -72 28 -127 24 -28 39
-51 33 -51 -14 0 8 -62 28 -78 14 -11 14 -11 -3 -5 -10 3 -17 2 -15 -3 22 -49
55 -104 61 -104 4 0 8 -8 8 -18 0 -25 56 -86 70 -77 8 5 6 13 -7 27 -13 15
-15 22 -5 25 13 5 17 24 5 22 -22 -4 -33 3 -33 20 0 11 -5 23 -11 27 -8 4 -4
11 10 18 21 12 20 13 -15 29 -32 15 -34 20 -22 34 10 13 10 17 1 20 -7 3 -13
13 -13 23 0 10 -5 20 -11 22 -11 4 -15 90 -5 106 3 6 -1 15 -9 22 -25 21 -20
109 8 144 22 27 25 28 59 17 52 -17 66 -38 94 -142 15 -52 32 -105 39 -119 18
-34 64 -77 98 -89 40 -15 227 -13 321 4 157 28 227 87 261 223 9 37 23 85 31
106 11 32 11 42 1 48 -17 11 12 30 33 21 8 -3 27 -8 43 -11 28 -4 52 -33 39
-47 -4 -3 -1 -5 7 -3 8 2 18 -10 24 -27 5 -16 30 -65 54 -108 60 -103 77 -111
233 -104 63 3 142 13 175 22 110 32 103 33 103 -22 -1 -92 4 -143 13 -149 6
-3 5 -11 -2 -20 -10 -12 -9 -17 0 -27 10 -9 11 -8 6 6 -9 21 -1 22 19 1 15
-14 16 -10 14 55 -2 39 -7 71 -11 71 -5 0 -6 16 -4 37 4 23 0 41 -9 50 -19 20
-18 40 4 47 19 7 56 79 72 141 5 22 13 76 16 120 5 59 12 86 26 101 13 15 18
33 16 55 -2 29 -8 35 -33 40 -47 10 -162 10 -146 0 9 -6 3 -10 -22 -13 -41 -4
-59 0 -51 13 5 9 -92 10 -151 2z m260 -39 c11 -3 34 -19 51 -35 30 -29 30 -32
27 -106 -2 -43 -11 -104 -20 -138 -9 -33 -17 -69 -18 -80 -1 -11 -4 -18 -8
-15 -3 3 -16 -5 -29 -16 -36 -33 -57 -41 -154 -60 -124 -23 -250 -24 -290 0
-40 24 -77 84 -108 178 -29 87 -33 134 -11 165 52 75 427 147 560 107z m103 3
c16 -11 16 -37 -1 -37 -8 0 -23 11 -36 23 l-22 24 23 -1 c13 -1 29 -5 36 -9z
m-682 -76 c-14 -22 -29 -68 -27 -83 3 -26 -19 -32 -39 -12 -23 24 -15 99 9 85
9 -6 19 -4 28 5 16 15 38 19 29 5z m-106 -32 c0 -17 5 -39 10 -50 14 -25 -14
-27 -29 -1 -10 16 -10 16 -11 0 0 -10 -7 -18 -15 -18 -11 0 -15 11 -15 38 1
35 2 36 15 18 13 -17 15 -17 15 -4 0 9 -9 20 -20 23 -32 10 -23 25 15 25 32 0
35 -2 35 -31z m-122 -17 l42 -22 0 -63 c0 -78 -21 -159 -60 -236 -25 -51 -37
-63 -82 -85 -70 -33 -160 -48 -291 -48 -187 1 -228 43 -269 280 -11 67 -11 74
8 99 23 31 90 57 194 75 36 6 83 14 105 19 22 4 101 7 175 5 117 -2 141 -5
178 -24z m-868 -281 c14 -32 -3 -52 -19 -22 -7 12 -18 21 -26 21 -8 0 -15 4
-15 8 0 30 46 25 60 -7z"/>
<path d="M2464 3855 c3 -8 1 -15 -4 -15 -6 0 -10 -5 -10 -11 0 -6 9 -8 20 -4
28 9 38 -24 31 -110 -6 -68 -7 -70 -39 -79 -35 -10 -39 -33 -4 -28 20 3 20 1
11 -26 -11 -32 -59 -83 -59 -64 0 7 -6 12 -14 12 -8 0 -13 -10 -13 -25 0 -14
2 -25 6 -25 17 0 70 41 76 59 3 12 10 19 15 16 16 -10 43 108 43 192 1 75 -1
83 -23 102 -30 24 -44 27 -36 6z"/>
<path d="M2157 3842 c-44 -4 -40 -22 4 -22 34 0 70 -16 82 -36 9 -16 35 -18
56 -5 22 14 -96 67 -142 63z"/>
<path d="M2348 3845 c-4 -5 18 -105 24 -110 2 -1 14 1 28 5 l25 7 -27 7 c-20
6 -27 15 -30 42 -2 19 1 39 6 44 7 7 5 10 -5 10 -9 0 -18 -2 -21 -5z"/>
<path d="M2105 3800 c3 -5 0 -7 -8 -4 -8 3 -18 1 -21 -5 -3 -5 7 -12 24 -16
27 -6 28 -8 14 -22 -11 -12 -18 -13 -27 -4 -13 13 -57 15 -57 2 0 -16 23 -26
50 -22 21 3 22 1 11 -13 -12 -14 -11 -16 7 -16 21 0 62 43 62 66 0 7 -7 20
-16 28 -17 17 -49 22 -39 6z"/>
<path d="M1956 3738 c-16 -19 -17 -20 -1 -15 9 4 20 7 25 7 4 0 10 7 14 15 8
22 -17 18 -38 -7z"/>
<path d="M1950 3671 c0 -9 34 -21 60 -21 9 1 5 7 -10 15 -29 16 -50 19 -50 6z"/>
<path d="M1415 3726 l-40 -12 49 -8 c27 -4 64 -15 83 -24 l33 -16 -27 -22
c-16 -12 -25 -25 -22 -29 4 -3 21 8 38 26 18 17 31 32 29 33 -30 21 -83 46
-94 46 -8 0 -12 5 -9 10 3 6 5 10 3 9 -2 0 -21 -6 -43 -13z"/>
<path d="M1286 3685 c-8 -8 -25 -15 -38 -15 -15 0 -29 -10 -40 -29 -16 -29
-16 -29 13 -42 19 -7 28 -17 25 -25 -5 -14 5 -18 32 -15 6 1 12 -2 12 -7 0 -5
7 -9 15 -9 8 0 12 4 9 8 -2 4 0 10 6 14 17 11 1 25 -29 25 -15 0 -36 7 -47 15
-19 15 -19 15 0 30 11 8 16 15 10 15 -5 0 4 7 20 15 15 8 34 15 42 15 7 0 16
5 19 10 10 16 -32 12 -49 -5z"/>
<path d="M1027 3673 c-14 -13 -7 -29 13 -30 11 -1 20 2 20 6 0 13 -26 32 -33
24z"/>
<path d="M1333 3660 c3 -13 0 -20 -9 -20 -22 0 -17 -16 11 -34 29 -19 79 -12
71 10 -3 7 4 16 15 19 28 9 18 29 -15 33 -17 2 -26 0 -22 -6 8 -14 -11 -62
-24 -62 -6 0 -8 5 -5 10 3 6 1 10 -4 10 -19 0 -12 20 7 21 10 0 12 3 5 6 -7 2
-13 11 -13 19 0 8 -5 14 -11 14 -6 0 -9 -9 -6 -20z"/>
<path d="M1095 3900 c-16 -16 -26 -32 -23 -35 9 -9 60 14 54 24 -3 5 1 12 10
15 8 3 12 10 9 16 -10 16 -19 12 -50 -20z"/>
<path d="M659 3723 c-45 -7 -63 -37 -65 -106 -2 -101 28 -198 73 -232 17 -13
54 -86 48 -96 -3 -4 3 -10 13 -13 10 -4 33 -35 52 -71 29 -56 31 -66 19 -82
-7 -10 -10 -15 -5 -11 16 14 105 -48 107 -74 0 -7 5 1 10 17 5 17 5 31 1 33
-42 14 -70 44 -81 85 -6 25 -15 48 -20 51 -5 3 -24 32 -41 64 -18 31 -47 74
-66 94 -55 61 -66 86 -80 171 -8 45 -14 89 -14 98 0 26 37 62 58 57 11 -3 19
0 19 8 0 8 -1 13 -1 13 -1 -1 -13 -4 -27 -6z"/>
<path d="M2831 3663 c1 -62 6 -56 11 15 2 23 0 42 -4 42 -5 0 -7 -26 -7 -57z"/>
<path d="M2030 3376 c0 -7 10 -24 22 -37 16 -18 19 -19 15 -6 -4 10 -7 25 -7
32 0 7 -7 15 -15 19 -9 3 -15 0 -15 -8z"/>
<path d="M2082 3345 c9 -16 13 -35 11 -42 -2 -6 1 -14 6 -18 21 -12 11 52 -10
71 l-22 19 15 -30z"/>
<path d="M2039 3205 c-7 -19 -17 -35 -21 -35 -4 0 -8 -4 -8 -10 0 -16 22 -12
36 8 11 15 16 15 34 4 12 -7 24 -11 27 -9 3 3 -5 10 -16 17 -13 6 -21 21 -21
35 0 36 -17 31 -31 -10z"/>
<path d="M2240 3232 c0 -4 14 -13 31 -19 17 -7 28 -16 25 -21 -3 -5 6 -14 20
-21 l26 -11 -21 29 c-19 27 -81 59 -81 43z"/>
<path d="M1725 3180 c3 -5 30 -10 58 -10 29 0 67 -4 85 -9 40 -12 41 -6 2 14
-33 17 -155 21 -145 5z"/>
<path d="M2170 3175 c0 -8 7 -18 15 -21 21 -9 19 -25 -2 -17 -10 3 -15 3 -12
-1 4 -4 21 -9 37 -11 37 -5 34 9 -9 43 -24 19 -29 21 -29 7z"/>
<path d="M2477 3163 c-3 -16 0 -31 6 -35 9 -6 9 -8 0 -8 -7 0 -13 -7 -13 -15
0 -15 19 -22 21 -7 12 66 -2 128 -14 65z"/>
<path d="M1665 3151 c6 -6 33 -13 60 -16 44 -4 46 -3 15 4 -19 5 -46 13 -60
16 -18 6 -22 5 -15 -4z"/>
<path d="M1840 3087 c0 -14 20 -37 31 -37 4 0 5 9 2 19 -6 22 -33 37 -33 18z"/>
<path d="M1000 3076 c0 -13 24 -56 32 -56 17 0 7 40 -12 50 -11 6 -20 9 -20 6z"/>
<path d="M1960 3071 c0 -8 -6 -11 -16 -7 -8 3 -12 2 -9 -4 3 -6 11 -10 18 -10
6 0 21 -12 33 -27 12 -15 23 -22 27 -16 4 6 -7 26 -23 44 -16 19 -30 28 -30
20z"/>
<path d="M1790 3047 c0 -18 2 -19 10 -7 8 13 10 13 10 -2 0 -9 9 -20 20 -23
11 -3 20 -10 20 -14 0 -4 7 -8 15 -8 21 0 19 4 -12 36 -40 39 -63 46 -63 18z"/>
<path d="M2070 3012 c0 -24 55 -41 73 -23 8 8 4 11 -15 11 -15 0 -34 7 -42 16
-15 14 -16 14 -16 -4z"/>
<path d="M1833 2977 c0 -9 3 -15 6 -13 3 1 16 -8 28 -21 l22 -23 -22 -15 c-21
-15 -19 -16 33 -13 46 3 57 7 65 26 5 12 18 25 28 28 15 5 16 9 7 17 -8 9 -14
8 -23 -4 -17 -22 -43 -29 -56 -16 -8 8 -11 8 -11 -1 0 -17 -38 3 -60 31 -14
16 -17 17 -17 4z"/>
<path d="M1640 2963 c0 -5 12 -21 26 -38 15 -18 23 -23 20 -12 -3 10 -2 15 3
12 5 -3 12 -1 16 5 3 5 0 10 -8 10 -8 0 -20 7 -27 15 -13 16 -30 20 -30 8z"/>
<path d="M1718 2924 c-2 -5 8 -22 24 -39 15 -16 28 -25 28 -20 0 16 -46 69
-52 59z"/>
<path d="M2846 2744 c3 -93 7 -239 9 -324 l3 -155 71 -32 c66 -30 71 -31 71
-13 0 11 -4 20 -10 20 -19 0 -25 2 -62 21 -20 10 -39 23 -42 28 -4 5 -7 82 -7
171 -1 117 2 165 11 170 9 5 9 9 1 14 -6 4 -11 25 -11 47 0 22 3 38 8 36 4 -3
12 1 19 8 10 10 7 14 -12 19 -13 3 -26 15 -29 26 -3 11 -9 29 -12 40 -4 15 -1
20 15 20 11 0 22 9 26 20 5 16 15 20 56 20 27 0 49 5 49 10 0 6 -26 10 -57 10
-32 0 -68 3 -81 6 l-22 6 6 -168z"/>
<path d="M1034 2866 c-4 -12 0 -22 15 -32 17 -12 19 -19 11 -35 -9 -16 -7 -19
10 -19 11 0 20 -4 20 -9 0 -5 -11 -8 -25 -5 -30 5 -33 -11 -5 -26 11 -6 18
-15 15 -20 -3 -5 4 -12 16 -15 12 -4 18 -12 15 -21 -3 -9 3 -16 19 -20 14 -3
28 -17 33 -33 6 -17 20 -31 33 -34 l24 -6 -22 17 c-13 9 -30 39 -39 66 -12 36
-24 51 -44 59 l-27 10 20 20 20 20 -27 24 c-15 13 -34 35 -41 50 -12 23 -15
24 -21 9z"/>
<path d="M2006 2855 c4 -9 0 -15 -9 -15 -10 0 -15 -8 -14 -21 1 -18 3 -18 13
-4 7 9 18 13 28 9 23 -9 20 18 -4 33 -16 11 -18 10 -14 -2z"/>
<path d="M1548 2829 c10 -14 8 -19 -12 -33 -14 -9 -29 -16 -35 -16 -13 0 -22
-27 -15 -45 4 -8 11 -15 17 -15 7 0 7 4 -1 12 -14 14 -16 32 -3 24 5 -3 14 1
21 9 7 8 17 15 22 15 5 0 16 6 23 14 12 12 11 16 -8 32 -15 13 -18 14 -9 3z"/>
<path d="M1710 2820 c0 -5 -11 -10 -25 -10 -14 0 -25 -4 -25 -10 0 -5 -8 -10
-17 -11 -14 0 -12 -3 5 -10 17 -6 32 -4 53 6 27 15 41 45 19 45 -5 0 -10 -4
-10 -10z"/>
<path d="M988 2774 c0 -5 -2 -37 -3 -72 -1 -62 -2 -65 -51 -112 -27 -27 -53
-49 -57 -50 -5 0 -23 -11 -40 -24 -63 -47 -100 -63 -140 -58 -47 5 -83 -12
-91 -44 -4 -13 -12 -24 -20 -24 -7 0 -25 -11 -41 -25 -15 -14 -57 -41 -93 -60
-146 -74 -278 -136 -302 -142 -14 -3 -53 -21 -87 -40 -48 -26 -63 -39 -63 -56
0 -12 4 -17 8 -12 18 26 99 75 123 75 15 0 31 5 34 10 3 6 19 10 35 10 16 0
32 5 36 11 4 6 43 29 88 49 45 21 88 45 95 53 7 9 37 21 68 28 41 9 57 18 63
34 9 23 29 35 61 35 12 0 21 9 25 28 12 54 11 54 51 33 50 -25 98 -73 150
-146 23 -33 85 -102 138 -154 52 -51 93 -97 90 -101 -13 -21 179 -117 297
-150 74 -20 103 -20 52 1 -16 7 -43 18 -61 25 -17 8 -36 14 -41 14 -21 0 -110
47 -153 80 -65 51 -218 196 -269 256 -14 16 -40 51 -59 77 -18 26 -48 58 -67
70 -18 12 -34 24 -34 27 0 3 17 13 38 23 51 24 96 49 102 56 3 3 24 19 48 35
24 16 57 47 74 68 31 39 33 66 16 150 -5 21 -17 35 -20 22z"/>
<path d="M1971 2714 c4 -21 -2 -28 -11 -14 -6 9 -10 11 -10 3 0 -7 -7 -10 -17
-6 -10 4 -14 2 -10 -4 4 -6 1 -14 -5 -16 -7 -3 3 -3 22 0 19 4 37 10 39 16 2
5 7 3 12 -4 5 -8 9 -9 9 -3 0 6 -7 17 -16 24 -8 8 -14 9 -13 4z"/>
<path d="M1136 2575 c9 -14 20 -25 24 -25 5 0 17 -3 27 -6 10 -3 5 3 -12 15
-29 20 -30 21 -6 21 31 0 25 6 -17 13 l-32 7 16 -25z"/>
<path d="M1184 2523 c-20 -7 -3 -43 20 -44 11 -1 35 -3 51 -4 17 -2 24 -1 18
2 -7 2 -13 10 -13 17 0 6 -12 13 -27 14 -15 1 -29 6 -32 11 -3 4 -11 6 -17 4z"/>
<path d="M2377 2493 c-4 -3 -7 -17 -7 -30 0 -14 -6 -23 -15 -23 -25 0 -17 -17
14 -28 l28 -10 -5 46 c-5 53 -6 55 -15 45z"/>
<path d="M1283 2433 c9 -2 17 -10 17 -18 0 -7 7 -16 16 -19 14 -5 14 -9 3 -22
-11 -14 -10 -18 6 -31 18 -13 20 -12 23 7 3 17 9 21 27 18 14 -3 22 -1 19 6
-3 7 -16 13 -31 14 -26 2 -46 19 -37 33 5 9 -22 19 -44 18 -15 -1 -15 -2 1 -6z"/>
<path d="M2239 2362 c-40 -44 -45 -56 -20 -43 11 7 21 17 21 23 0 6 7 20 17
30 9 10 14 18 11 18 -2 0 -16 -12 -29 -28z"/>
<path d="M720 2343 c0 -34 318 -338 335 -321 3 2 -18 22 -46 43 -28 21 -104
95 -170 164 -65 69 -119 120 -119 114z"/>
<path d="M1430 2326 c24 -19 36 -23 39 -14 2 7 9 16 14 20 6 3 -1 6 -14 6 -13
0 -35 3 -49 7 -21 6 -20 4 10 -19z"/>
<path d="M1486 2298 c3 -4 -3 -8 -13 -8 -15 0 -16 -2 -3 -10 21 -14 28 -12 39
8 7 14 6 18 -9 18 -10 0 -16 -4 -14 -8z"/>
<path d="M2196 2269 c-3 -19 -10 -65 -16 -104 -15 -106 -38 -228 -46 -248 -3
-10 -18 -24 -32 -31 -15 -8 -21 -16 -14 -20 15 -9 84 54 78 71 -3 7 1 46 10
86 24 114 41 255 33 268 -5 8 -10 0 -13 -22z"/>
<path d="M1558 2273 c-24 -6 -23 -25 2 -41 17 -10 20 -10 20 4 0 11 6 14 20
10 11 -3 29 -9 40 -12 22 -6 27 -23 8 -25 -7 -1 6 -5 30 -10 24 -4 57 -15 74
-23 28 -14 29 -14 17 1 -12 15 -11 16 8 11 12 -3 24 -1 26 6 3 8 7 8 18 0 8
-6 28 -13 45 -16 30 -4 30 -4 17 24 -17 33 -27 37 -18 7 8 -24 8 -24 -74 6
-47 17 -61 14 -41 -10 7 -8 8 -15 2 -15 -5 0 -15 6 -22 14 -6 8 -18 12 -26 9
-7 -3 -17 2 -20 11 -3 9 -10 14 -14 11 -5 -3 -16 2 -24 11 -9 8 -16 13 -16 9
0 -3 -12 1 -27 8 -16 7 -36 12 -45 10z"/>
<path d="M2027 2234 c-3 -4 -32 -12 -64 -18 -32 -7 -56 -16 -53 -21 14 -26
140 6 140 36 0 10 -14 12 -23 3z"/>
<path d="M719 2193 c5 -10 32 -38 60 -62 28 -25 51 -49 51 -54 0 -5 -16 -7
-37 -4 -33 5 -36 4 -20 -7 9 -7 17 -17 17 -21 0 -11 41 -45 54 -44 6 0 1 7
-11 16 -21 14 -34 51 -14 39 5 -4 11 -1 13 5 2 7 16 1 34 -14 17 -14 42 -29
57 -32 15 -4 31 -12 35 -19 4 -6 19 -19 33 -28 26 -17 37 -53 13 -44 -8 3 -16
0 -20 -5 -4 -7 3 -10 17 -9 36 3 46 1 61 -13 27 -25 68 -47 90 -47 17 0 12 6
-25 30 -26 16 -66 47 -89 68 -24 21 -76 60 -117 87 -41 28 -102 78 -137 112
-62 64 -83 78 -65 46z"/>
<path d="M2720 2135 c0 -7 27 -35 53 -54 15 -12 17 -12 12 1 -6 15 -65 63 -65
53z"/>
<path d="M420 2102 c0 -10 70 -45 77 -39 2 3 -10 11 -26 18 -17 8 -31 17 -31
21 0 5 -4 8 -10 8 -5 0 -10 -4 -10 -8z"/>
<path d="M1447 2024 c-12 -13 7 -34 30 -34 13 0 21 4 18 10 -9 14 -41 30 -48
24z"/>
<path d="M583 1833 c-509 -3 -583 -5 -583 -18 0 -13 78 -15 623 -17 342 -1
645 -2 672 -2 28 1 422 2 878 4 700 2 827 4 827 16 0 12 -134 14 -882 14 -486
0 -899 2 -918 3 -19 2 -297 2 -617 0z"/>
</g>
</svg>
